<!-- icon666.com - MILLIONS OF FREE VECTOR ICONS --><svg version="1.1" id="Layer_1" xmlns="http://www.w3.org/2000/svg" xmlns:xlink="http://www.w3.org/1999/xlink" x="0px" y="0px" viewBox="0 0 512 512" style="enable-background:new 0 0 512 512;" xml:space="preserve"><path style="fill:#F7B081;" d="M316.382,477.898L316.382,477.898V338.547l-6.768-27.107c3.266-0.812,5.689-3.754,5.689-7.27 c0-4.142-3.36-7.5-7.504-7.5h-45.906c-14.902,0-29.247,6.275-39.356,17.218l-9.073,9.819h-33.978c-4.144,0-7.504,3.357-7.504,7.5 c0,0,0,122.13,0,126.272s3.36,7.5,7.504,7.5h34.606l14.844,12.011c12.677,10.258,28.641,15.907,44.952,15.907h42.495 c4.144,0,7.504-3.357,7.504-7.5C323.886,481.256,320.526,477.898,316.382,477.898z"></path><path style="fill:#DD9A76;" d="M301.027,472.711c0-11.144,9.039-20.178,20.189-20.178c-11.15,0-20.189-9.034-20.189-20.178 s9.039-20.178,20.189-20.178c-11.15,0-20.189-9.034-20.189-20.178s9.039-20.178,20.189-20.178c-11.15,0-20.189-9.034-20.189-20.178 s9.039-20.178,20.189-20.178h-22.904c-11.15,0-20.189,9.034-20.189,20.178s9.039,20.178,20.189,20.178 c-11.15,0-20.189,9.034-20.189,20.178s9.039,20.178,20.189,20.178c-11.15,0-20.189,9.034-20.189,20.178s9.039,20.178,20.189,20.178 c-11.15,0-20.189,9.034-20.189,20.178s9.039,20.178,20.189,20.178h22.904C310.066,492.889,301.027,483.855,301.027,472.711z"></path><g><path style="fill:#FBAB00;" d="M339.612,67.627c-4.144,0-7.504-3.357-7.504-7.5V26.46c0-4.143,3.36-7.5,7.504-7.5 s7.504,3.357,7.504,7.5v33.667C347.116,64.27,343.756,67.627,339.612,67.627z"></path><path style="fill:#FBAB00;" d="M230.824,116.179c-1.784,0-3.574-0.632-5.006-1.915l-25.082-22.472 c-3.086-2.765-3.346-7.507-0.579-10.591c2.765-3.085,7.51-3.344,10.596-0.579l25.082,22.472c3.086,2.765,3.345,7.507,0.578,10.591 C234.932,115.337,232.882,116.179,230.824,116.179z"></path><path style="fill:#FBAB00;" d="M277.144,81.821c-2.797,0-5.482-1.57-6.772-4.26l-14.56-30.358 c-1.791-3.735-0.214-8.215,3.523-10.005c3.738-1.792,8.219-0.215,10.011,3.521l14.56,30.358c1.791,3.735,0.214,8.215-3.523,10.005 C279.336,81.584,278.231,81.821,277.144,81.821z"></path><path style="fill:#FBAB00;" d="M200.448,163.736c-0.882,0-1.779-0.156-2.653-0.486l-25.72-9.721 c-3.877-1.466-5.831-5.794-4.365-9.668c1.466-3.875,5.795-5.828,9.673-4.363l25.72,9.721c3.876,1.466,5.831,5.794,4.365,9.668 C206.333,161.888,203.478,163.736,200.448,163.736z"></path><path style="fill:#FBAB00;" d="M448.4,116.179c-2.058,0-4.108-0.842-5.59-2.494c-2.767-3.084-2.507-7.826,0.578-10.591 l25.081-22.472c3.086-2.764,7.831-2.506,10.596,0.579c2.767,3.084,2.507,7.825-0.578,10.591l-25.081,22.472 C451.973,115.547,450.184,116.179,448.4,116.179z"></path><path style="fill:#FBAB00;" d="M402.08,81.821c-1.087,0-2.192-0.237-3.238-0.739c-3.737-1.79-5.314-6.27-3.523-10.005l14.56-30.358 c1.791-3.735,6.273-5.313,10.011-3.521c3.737,1.79,5.314,6.27,3.523,10.005l-14.56,30.358 C407.562,80.251,404.877,81.821,402.08,81.821z"></path><path style="fill:#FBAB00;" d="M478.775,163.736c-3.031,0-5.885-1.848-7.02-4.85c-1.466-3.874,0.488-8.202,4.365-9.668l25.72-9.721 c3.878-1.464,8.207,0.488,9.673,4.363c1.466,3.874-0.488,8.202-4.365,9.668l-25.72,9.721 C480.554,163.58,479.657,163.736,478.775,163.736z"></path></g><path style="fill:#EFE7E4;" d="M179.486,311.164h-54.191c-4.144,0-7.504,3.357-7.504,7.5V467.72c0,4.142,3.36,7.5,7.504,7.5h54.191 c4.144,0,7.504-3.358,7.504-7.5V318.664C186.989,314.521,183.63,311.164,179.486,311.164z"></path><path style="fill:#D8D1D0;" d="M117.79,446.911v20.808c0,4.142,3.36,7.5,7.504,7.5h54.191c4.144,0,7.504-3.358,7.504-7.5v-20.808 H117.79z"></path><path style="fill:#546F7A;" d="M125.294,296.671H7.504c-4.144,0-7.504,3.358-7.504,7.5v178.042c0,4.143,3.36,7.5,7.504,7.5h117.79 c4.144,0,7.504-3.357,7.504-7.5V304.171C132.798,300.028,129.439,296.671,125.294,296.671z"></path><path style="fill:#465A65;" d="M0,461.405v20.808c0,4.143,3.36,7.5,7.504,7.5h117.79c4.144,0,7.504-3.357,7.504-7.5v-20.808H0z"></path><ellipse style="fill:#353535;" cx="88.26" cy="446.38" rx="11.11" ry="11.1"></ellipse><path style="fill:#F7CB4F;" d="M403.222,125.843c-15.747-14.317-37.492-21.885-62.883-21.885s-47.135,7.567-62.883,21.885 c-17.278,15.708-26.41,39.001-26.41,67.361c0,2.48,0.583,61.358,51.301,116.065c1.42,1.531,3.415,2.402,5.504,2.402h64.976 c2.089,0,4.084-0.871,5.504-2.402c50.717-54.706,51.301-113.585,51.301-116.065C429.632,164.844,420.5,141.551,403.222,125.843z"></path><path style="fill:#FBAB00;" d="M403.222,125.843c-15.747-14.317-37.492-21.885-62.883-21.885c-5.254,0-10.342,0.343-15.263,0.983 c18.86,2.456,35.131,9.547,47.62,20.901c17.277,15.708,26.41,39.001,26.41,67.361c0,2.48-0.583,61.358-51.301,116.065 c-1.42,1.531-3.415,2.402-5.504,2.402h30.526c2.089,0,4.084-0.871,5.504-2.402c50.717-54.706,51.301-113.585,51.301-116.065 C429.632,164.844,420.5,141.551,403.222,125.843z"></path><path style="fill:#EFE7E4;" d="M353.966,311.672c-0.302,0-0.608-0.018-0.917-0.056c-4.114-0.501-7.043-4.24-6.541-8.352 l8.648-70.988h-29.634l8.648,70.988c0.501,4.111-2.428,7.851-6.541,8.352c-4.121,0.494-7.855-2.427-8.356-6.539l-9.673-79.395 c-0.26-2.131,0.407-4.271,1.831-5.879c1.424-1.607,3.47-2.527,5.618-2.527h46.58c2.148,0,4.194,0.92,5.618,2.527 s2.091,3.748,1.831,5.879l-9.673,79.395C360.942,308.881,357.705,311.672,353.966,311.672z"></path><path style="fill:#FF6137;" d="M300.294,306.898v21.586c0,9.83,8.002,17.828,17.837,17.828h44.301 c9.836,0,17.837-7.998,17.837-17.828v-21.586H300.294z"></path><path style="fill:#FFC89F;" d="M388.716,331.312h-70.175c-13.863,0-25.142,11.272-25.142,25.129v1.425 c0,13.856,11.279,25.129,25.142,25.129h70.175c13.863,0,25.142-11.272,25.142-25.129v-1.425 C413.858,342.584,402.58,331.312,388.716,331.312z"></path><path style="fill:#F7B081;" d="M391.385,360.328H321.21c-11.139,0-20.603-7.28-23.895-17.328c-2.474,3.89-3.915,8.499-3.915,13.44 v1.425c0,13.856,11.279,25.129,25.142,25.129h70.175c13.863,0,25.142-11.272,25.142-25.129v-1.425c0-2.723-0.441-5.344-1.246-7.801 C408.148,355.657,400.304,360.328,391.385,360.328z"></path><path style="fill:#FFC89F;" d="M397.198,367.994h-78.657c-13.863,0-25.142,11.272-25.142,25.129v1.425 c0,13.855,11.279,25.128,25.142,25.128h78.657c13.863,0,25.142-11.272,25.142-25.128v-1.425 C422.34,379.267,411.062,367.994,397.198,367.994z"></path><path style="fill:#F7B081;" d="M397.198,397.009h-78.657c-10.067,0-18.766-5.947-22.778-14.507 c-1.513,3.228-2.364,6.827-2.364,10.621v1.425c0,13.855,11.279,25.128,25.142,25.128h78.657c13.863,0,25.142-11.272,25.142-25.128 v-1.425c0-3.794-0.851-7.393-2.364-10.621C415.965,391.062,407.265,397.009,397.198,397.009z"></path><path style="fill:#FFC89F;" d="M388.004,404.676h-68.75c-14.257,0-25.855,11.593-25.855,25.842s11.598,25.841,25.855,25.841h68.75 c14.256,0,25.854-11.592,25.854-25.841S402.26,404.676,388.004,404.676z"></path><path style="fill:#F7B081;" d="M388.004,433.692h-68.75c-10.191,0-19.021-5.925-23.229-14.508c-1.679,3.424-2.625,7.27-2.625,11.333 c0,14.249,11.598,25.841,25.855,25.841h68.75c14.256,0,25.854-11.592,25.854-25.841c0-4.064-0.946-7.909-2.625-11.333 C407.024,427.767,398.195,433.692,388.004,433.692z"></path><path style="fill:#FFC89F;" d="M369.08,441.358h-49.825c-14.257,0-25.855,11.592-25.855,25.841s11.598,25.841,25.855,25.841h49.825 c14.256,0,25.854-11.592,25.854-25.841S383.336,441.358,369.08,441.358z"></path><path style="fill:#F7B081;" d="M369.08,470.374h-49.825c-10.191,0-19.02-5.925-23.229-14.508c-1.679,3.424-2.625,7.27-2.625,11.333 c0,14.249,11.598,25.841,25.855,25.841h49.825c14.256,0,25.854-11.592,25.854-25.841c0-4.064-0.946-7.909-2.625-11.333 C388.1,464.449,379.27,470.374,369.08,470.374z"></path></svg>