<!-- icon666.com - MILLIONS OF FREE VECTOR ICONS --><svg viewBox="0 0 512 512" xmlns="http://www.w3.org/2000/svg"><path d="m394.667969 160c0-11.78125-9.550781-21.332031-21.335938-21.332031h-341.332031c-11.78125 0-21.332031 9.550781-21.332031 21.332031v213.332031h384zm0 0" fill="#26c4b1"></path><path d="m10.667969 373.332031v42.667969c0 11.78125 9.550781 21.332031 21.332031 21.332031h341.332031c11.785157 0 21.335938-9.550781 21.335938-21.332031v-42.667969zm0 0" fill="#cbd3db"></path><path d="m138.667969 437.332031h128v64h-128zm0 0" fill="#6c8199"></path><path d="m501.332031 96v42.667969h-24.105469c-2.019531 7.699219-5.070312 15.089843-9.066406 21.972656l17.066406 17.066406-30.1875 30.1875-17.066406-17.066406c-6.882812 3.996094-14.273437 7.046875-21.972656 9.066406v24.105469h-42.667969v-24.105469c-7.699219-2.019531-15.089843-5.070312-21.972656-9.066406l-17.066406 17.066406-30.1875-30.1875 17.066406-17.066406c-3.996094-6.882813-7.046875-14.273437-9.066406-21.972656h-24.105469v-42.667969h24.105469c2.019531-7.699219 5.070312-15.089844 9.066406-21.972656l-17.066406-17.066406 30.1875-30.1875 17.066406 17.066406c6.882813-3.996094 14.273437-7.046875 21.972656-9.066406v-24.105469h42.667969v24.105469c7.699219 2.019531 15.089844 5.070312 21.972656 9.066406l17.066406-17.066406 30.1875 30.1875-17.066406 17.066406c3.996094 6.882812 7.046875 14.273437 9.066406 21.972656zm-74.664062 21.332031c0-17.671875-14.328125-32-32-32-17.675781 0-32 14.328125-32 32 0 17.675781 14.324219 32 32 32 17.671875 0 32-14.324219 32-32zm0 0" fill="#fecd2a"></path><path d="m128 42.667969c0 11.78125-9.550781 21.332031-21.332031 21.332031-11.785157 0-21.335938-9.550781-21.335938-21.332031 0-11.785157 9.550781-21.335938 21.335938-21.335938 11.78125 0 21.332031 9.550781 21.332031 21.335938zm0 0" fill="#fff"></path><path d="m128 224c0 11.78125-9.550781 21.332031-21.332031 21.332031-11.785157 0-21.335938-9.550781-21.335938-21.332031s9.550781-21.332031 21.335938-21.332031c11.78125 0 21.332031 9.550781 21.332031 21.332031zm0 0" fill="#fff"></path><path d="m341.332031 352c0 11.78125-9.550781 21.332031-21.332031 21.332031s-21.332031-9.550781-21.332031-21.332031 9.550781-21.332031 21.332031-21.332031 21.332031 9.550781 21.332031 21.332031zm0 0" fill="#fff"></path><g fill="#3d4249"><path d="m384 416c0 5.890625-4.777344 10.667969-10.667969 10.667969h-341.332031c-5.890625 0-10.667969-4.777344-10.667969-10.667969v-32h245.335938v-21.332031h-245.335938v-202.667969c0-5.890625 4.777344-10.667969 10.667969-10.667969h138.667969v-21.332031h-138.667969c-17.671875 0-32 14.328125-32 32v256c0 17.671875 14.328125 32 32 32h96v42.667969h-21.332031v21.332031h192v-21.332031h-21.335938v-42.667969h96c17.675781 0 32-14.328125 32-32v-106.667969h-21.332031zm-128 74.667969h-106.667969v-42.667969h106.667969zm0 0"></path><path d="m501.332031 85.332031h-16.234375c-1.121094-3.167969-2.40625-6.277343-3.851562-9.3125l11.46875-11.484375c4.164062-4.167968 4.164062-10.917968 0-15.085937l-30.164063-30.164063c-4.167969-4.164062-10.917969-4.164062-15.085937 0l-11.484375 11.476563c-3.035157-1.445313-6.144531-2.734375-9.3125-3.859375v-16.234375c0-5.890625-4.777344-10.667969-10.667969-10.667969h-42.667969c-5.890625 0-10.664062 4.777344-10.664062 10.667969v16.234375c-3.171875 1.121094-6.277344 2.40625-9.3125 3.851562l-11.488281-11.46875c-4.164063-4.164062-10.917969-4.164062-15.082032 0l-30.167968 30.164063c-4.164063 4.167969-4.164063 10.917969 0 15.085937l11.480468 11.484375c-1.449218 3.035157-2.738281 6.144531-3.863281 9.3125h-16.234375c-5.890625 0-10.667969 4.777344-10.667969 10.667969v42.667969c0 5.890625 4.777344 10.664062 10.667969 10.664062h16.234375c1.121094 3.171875 2.40625 6.277344 3.851563 9.3125l-11.46875 11.488281c-4.164063 4.164063-4.164063 10.917969 0 15.082032l30.175781 30.175781c4.167969 4.164063 10.917969 4.164063 15.085937 0l11.488282-11.476563c3.035156 1.445313 6.140624 2.730469 9.308593 3.851563v16.234375c0 5.890625 4.777344 10.667969 10.667969 10.667969h42.667969c5.890625 0 10.664062-4.777344 10.664062-10.667969v-16.234375c3.171875-1.121094 6.277344-2.40625 9.3125-3.851563l11.488281 11.476563c4.167969 4.164063 10.917969 4.164063 15.082032 0l30.175781-30.175781c4.164063-4.164063 4.164063-10.917969 0-15.082032l-11.476563-11.488281c1.441407-3.035156 2.722657-6.144531 3.839844-9.3125h16.234375c5.890625 0 10.667969-4.773437 10.667969-10.664062v-42.667969c0-5.890625-4.777344-10.667969-10.667969-10.667969zm-10.664062 42.667969h-13.460938c-4.863281 0-9.109375 3.292969-10.328125 8-1.734375 6.742188-4.410156 13.203125-7.945312 19.199219-2.472656 4.191406-1.796875 9.519531 1.640625 12.960937l9.515625 9.515625-15.09375 15.09375-9.511719-9.515625c-3.441406-3.4375-8.773437-4.113281-12.960937-1.644531-5.996094 3.539063-12.460938 6.210937-19.199219 7.949219-4.710938 1.214844-8 5.460937-8 10.324218v13.449219h-21.324219v-13.460937c0-4.863282-3.292969-9.109375-8-10.324219-6.742188-1.734375-13.203125-4.410156-19.199219-7.945313-4.191406-2.472656-9.519531-1.796874-12.960937 1.640626l-9.515625 9.515624-15.09375-15.09375 9.515625-9.515624c3.4375-3.4375 4.113281-8.769532 1.644531-12.960938-3.539063-5.992188-6.210937-12.457031-7.949219-19.199219-1.214844-4.707031-5.460937-7.996093-10.324218-8h-13.449219v-21.320312h13.460937c4.863282-.003907 9.109375-3.292969 10.324219-8 1.734375-6.742188 4.410156-13.207031 7.945313-19.203125 2.472656-4.1875 1.796874-9.519532-1.640626-12.957032l-9.515624-9.515624 15.09375-15.09375 9.515624 9.515624c3.4375 3.4375 8.769532 4.113282 12.960938 1.640626 5.992188-3.535157 12.457031-6.210938 19.199219-7.945313 4.699219-1.21875 7.984375-5.457031 7.988281-10.316406v-13.460938h21.332031v13.460938c.003907 4.863281 3.292969 9.109375 8 10.328125 6.742188 1.734375 13.207031 4.410156 19.203125 7.945312 4.1875 2.472656 9.519532 1.796875 12.957032-1.640625l9.515624-9.515625 15.09375 15.09375-9.515624 9.511719c-3.4375 3.441406-4.113282 8.773437-1.640626 12.960937 3.535157 5.996094 6.210938 12.460938 7.945313 19.199219 1.214844 4.710938 5.460937 8 10.324219 8h13.453125zm0 0"></path><path d="m394.667969 74.667969c-23.566407 0-42.667969 19.101562-42.667969 42.664062 0 23.566407 19.101562 42.667969 42.667969 42.667969 23.5625 0 42.664062-19.101562 42.664062-42.667969 0-23.5625-19.101562-42.664062-42.664062-42.664062zm0 64c-11.785157 0-21.335938-9.550781-21.335938-21.335938 0-11.78125 9.550781-21.332031 21.335938-21.332031 11.78125 0 21.332031 9.550781 21.332031 21.332031 0 11.785157-9.550781 21.335938-21.332031 21.335938zm0 0"></path><path d="m106.667969 74.667969c13.511719-.058594 25.53125-8.59375 30.035156-21.335938h33.964844c5.890625 0 10.664062 4.777344 10.664062 10.667969v53.332031c0 17.675781 14.328125 32 32 32h42.667969v-21.332031h-42.667969c-5.890625 0-10.664062-4.777344-10.664062-10.667969v-53.332031c0-17.671875-14.328125-32-32-32h-33.964844c-5.449219-15.300781-21.515625-24.078125-37.335937-20.394531-15.820313 3.683593-26.359376 18.652343-24.492188 34.789062s15.546875 28.300781 31.792969 28.273438zm0-42.667969c5.890625 0 10.664062 4.777344 10.664062 10.667969s-4.773437 10.664062-10.664062 10.664062-10.667969-4.773437-10.667969-10.664062 4.777344-10.667969 10.667969-10.667969zm0 0"></path><path d="m106.667969 192c-16.292969-.066406-30.03125 12.113281-31.917969 28.292969-1.886719 16.183593 8.683594 31.199219 24.554688 34.878906 15.867187 3.679687 31.96875-5.148437 37.398437-20.503906h151.296875c2.828125 0 5.542969-1.125 7.542969-3.125l10.664062-10.667969-15.082031-15.082031-7.539062 7.539062h-146.882813c-4.503906-12.738281-16.523437-21.277343-30.035156-21.332031zm0 42.667969c-5.890625 0-10.667969-4.777344-10.667969-10.667969s4.777344-10.667969 10.667969-10.667969 10.664062 4.777344 10.664062 10.667969-4.773437 10.667969-10.664062 10.667969zm0 0"></path><path d="m373.332031 266.667969h-32c-17.671875 0-32 14.324219-32 32v23.292969c-14.691406 5.195312-23.507812 20.222656-20.871093 35.582031 2.636718 15.363281 15.953124 26.589843 31.539062 26.589843s28.902344-11.226562 31.539062-26.589843c2.636719-15.359375-6.179687-30.386719-20.871093-35.582031v-23.292969c0-5.890625 4.773437-10.667969 10.664062-10.667969h32c17.675781 0 32-14.328125 32-32h-21.332031c0 5.890625-4.777344 10.667969-10.667969 10.667969zm-53.332031 96c-5.890625 0-10.667969-4.777344-10.667969-10.667969s4.777344-10.667969 10.667969-10.667969 10.667969 4.777344 10.667969 10.667969-4.777344 10.667969-10.667969 10.667969zm0 0"></path></g></svg>