<!-- icon666.com - MILLIONS OF FREE VECTOR ICONS --><svg version="1.1" id="Layer_1" xmlns="http://www.w3.org/2000/svg" xmlns:xlink="http://www.w3.org/1999/xlink" x="0px" y="0px" viewBox="0 0 512 512" style="enable-background:new 0 0 512 512;" xml:space="preserve"><path style="fill:#5A6B96;" d="M459.593,420.229H52.407c-23.231,0-42.064-18.832-42.064-42.064V363.34h491.313v14.825 C501.657,401.397,482.824,420.229,459.593,420.229z"></path><path style="fill:#EFEFEF;" d="M426.925,58.366H85.075c-16.994,0-30.772,13.777-30.772,30.772V363.34h403.394V89.138 C457.697,72.143,443.92,58.366,426.925,58.366z"></path><rect x="293.348" y="337.334" transform="matrix(0.7071 0.7071 -0.7071 0.7071 372.6272 -178.3886)" style="fill:#FFFFFF;" width="216.6" height="46.545"></rect><path style="fill:#FBC640;" d="M285.556,198.778h-65.526c-3.327,0-6.025,2.698-6.025,6.025v50.011c0,3.327,2.698,6.025,6.025,6.025 h65.526c3.327,0,6.025-2.698,6.025-6.025v-50.011C291.581,201.476,288.884,198.778,285.556,198.778z"></path><g><path style="fill:#231F20;" d="M512,363.34c0-5.712-4.632-10.343-10.343-10.343H468.04V89.138 c0-22.671-18.444-41.115-41.115-41.115H85.075c-22.671,0-41.115,18.444-41.115,41.115v263.859H10.343 C4.631,352.997,0,357.628,0,363.34v14.825c0,28.897,23.51,52.407,52.407,52.407h371.675l30.376,30.376 c2.02,2.019,4.667,3.03,7.314,3.03c2.647,0,5.294-1.011,7.314-3.03l32.913-32.912c1.939-1.939,3.03-4.571,3.03-7.314 c0-2.743-1.09-5.373-3.03-7.314l-1.973-1.973c7.468-9.057,11.974-20.642,11.974-33.271L512,363.34L512,363.34z M64.646,89.138 c0-11.265,9.164-20.428,20.428-20.428h341.851c11.265,0,20.428,9.163,20.428,20.428v263.859h-5.765l-81.815-81.814h48.689 c5.712,0,10.343-4.632,10.343-10.343c0-5.712-4.632-10.343-10.343-10.343h-48.709c8.631-23.939,8.996-50.21,1.089-74.346h6.867 c5.712,0,10.343-4.632,10.343-10.343c0-5.712-4.632-10.343-10.343-10.343h-16.027c-4.922-8.654-11.062-16.8-18.435-24.173 c-0.57-0.57-1.147-1.13-1.727-1.686h32.44c5.712,0,10.343-4.632,10.343-10.343c0-5.712-4.632-10.343-10.343-10.343h-59.966 c-0.673,0-1.33,0.069-1.967,0.192c-15.17-7.291-31.904-11.144-49.233-11.144c-17.177,0-33.773,3.784-48.839,10.952H100.848 c-5.713,0-10.343,4.632-10.343,10.343c0,5.712,4.631,10.343,10.343,10.343h73.22c-0.58,0.556-1.157,1.116-1.727,1.686 c-7.307,7.307-13.495,15.434-18.484,24.173h-28.702c-5.713,0-10.343,4.632-10.343,10.343c0,5.712,4.631,10.343,10.343,10.343 h19.513c-2.729,8.318-4.489,16.984-5.237,25.859h-38.583c-5.713,0-10.343,4.632-10.343,10.343c0,5.712,4.631,10.343,10.343,10.343 h38.689c0.843,8.883,2.713,17.548,5.545,25.859h-19.927c-5.713,0-10.343,4.632-10.343,10.343c0,5.712,4.631,10.343,10.343,10.343 h29.412c4.862,8.275,10.808,15.989,17.773,22.955c0.991,0.991,2.001,1.954,3.021,2.903h-50.206 c-5.713,0-10.343,4.632-10.343,10.343s4.631,10.343,10.343,10.343h81.441c14.355,6.38,30.018,9.735,46.197,9.735 c18.825,0,36.95-4.546,53.128-13.109l40.585,40.583H64.646V89.138z M252.794,304.834c-13.791,0-27.12-2.99-39.262-8.644 c-0.234-0.117-0.47-0.23-0.714-0.328c-9.475-4.511-18.211-10.655-25.85-18.294c-17.583-17.582-27.265-40.959-27.265-65.825 s9.684-48.243,27.266-65.826s40.96-27.265,65.825-27.265c24.866,0,48.243,9.682,65.826,27.265 c36.296,36.296,36.296,95.354,0,131.649C301.036,295.151,277.659,304.834,252.794,304.834z M52.407,409.885 c-17.491,0-31.72-14.229-31.72-31.72v-4.482h33.616h312.89l36.202,36.202H52.407z M461.771,439.006L323.588,300.822 c3.353-2.676,6.581-5.548,9.659-8.626c3.092-3.092,5.959-6.322,8.619-9.665l138.19,138.19L461.771,439.006z M462.275,373.683 h29.038v4.482c0,6.921-2.24,13.32-6.019,18.539L462.275,373.683z"></path><path style="fill:#231F20;" d="M288.996,188.806v-10.714c0-19.962-16.24-36.202-36.202-36.202s-36.202,16.24-36.202,36.202v10.714 c-7.379,1.585-12.929,8.153-12.929,15.998v50.011c0,9.026,7.343,16.368,16.368,16.368h65.526c9.026,0,16.368-7.344,16.368-16.368 v-50.01C301.925,196.959,296.375,190.391,288.996,188.806z M237.278,178.091c0-8.555,6.96-15.515,15.515-15.515 c8.555,0,15.515,6.96,15.515,15.515v10.343h-31.03V178.091z M281.238,250.495h-56.889v-41.374h2.586h51.717h2.586V250.495z"></path><path style="fill:#231F20;" d="M407.531,129.604h0.931c5.712,0,10.343-4.632,10.343-10.343c0-5.712-4.632-10.343-10.343-10.343 h-0.931c-5.712,0-10.343,4.632-10.343,10.343C397.188,124.972,401.82,129.604,407.531,129.604z"></path></g></svg>